# xmcd
#
# Track frame offsets: 
#        150
#        10177
#        19960
#        30265
#        41172
#        51755
#        64112
#        77712
#        88062
#        101535
#        114970
#        127802
#        141530
#        154950
#        167415
#        178067
#        188917
#        201850
#        215212
#        226485
#        236987
#        249317
#        263075
#        273562
#        284635
#        295505
#        308075
#        321807
#        337682
#        348435
#
# Disc length: 4779 seconds
#
# Revision: 6
# Processed by: cddbd v1.5.2PL0 Copyright (c) Steve Scherf et al.
# Submitted via: ExactAudioCopy v0.99pb5
#
DISCID=b512a91e
DTITLE=Various Artist - And The Answer Is! Great Country Answer Discs From Th
DTITLE=e '60s And Their Original Versions
DYEAR=1994
DGENRE=Oldies
TTITLE0=Johnny Cash And The Tennessee Two - Ballad of a teenage queen
TTITLE1=Tommy Tucker - Return of the teenage queen
TTITLE2=Billy Walker - Charlie's shoes
TTITLE3=Johnny and Jonie Mosby - The answer to "Charlie's shoes"
TTITLE4=Jim Reeves - He'll have to go
TTITLE5=Jeanne Black - He'll have to stay
TTITLE6=Patsy Cline - She's got you
TTITLE7=Judy - She can have you
TTITLE8=David Houston - Almost persuaded
TTITLE9=Donna Harris - (He was) almost persuaded
TTITLE10=Bobby Bare - Detroit City
TTITLE11=Shirley Ray - Why don'tcha come home
TTITLE12=Claude King - Wolverton Mountain
TTITLE13=Jo-Ann Campbell - I'm the girl from Wolverton Mountain
TTITLE14=Leroy Van Dyke - Walk on by
TTITLE15=Margie Singleton - I'll just walk on by
TTITLE16=Kenny Rogers and The First Edition - Ruby, don't take your love
TTITLE16=to town
TTITLE17=Geraldine Stevens - Billy, I've got to go to town
TTITLE18=Roger Miller - King of the road
TTITLE19=Jody Miller - Queen of the house
TTITLE20=Bobby Bare - 500 miles away from home
TTITLE21=Mary Taylor - He's comin' home
TTITLE22=Jan Howard - Evil on your mind
TTITLE23=Burl Ives - Evil off my mind
TTITLE24=Hank Locklin - Please help me, I'm falling
TTITLE25=Skeeter Davis - (I can't help you) I'm falling too
TTITLE26=Willie Nelson - Good hearted woman
TTITLE27=Connie Cato - Good hearted man
TTITLE28=Waylon Jennings - Only daddy that'll walk the line
TTITLE29=Jean Shepard - Only mama that'll walk the line
EXTD=
EXTT0=
EXTT1=
EXTT2=
EXTT3=
EXTT4=
EXTT5=
EXTT6=
EXTT7=
EXTT8=
EXTT9=
EXTT10=
EXTT11=
EXTT12=
EXTT13=
EXTT14=
EXTT15=
EXTT16=
EXTT17=
EXTT18=
EXTT19=
EXTT20=
EXTT21=
EXTT22=
EXTT23=
EXTT24=
EXTT25=
EXTT26=
EXTT27=
EXTT28=
EXTT29=
PLAYORDER=
